<mxfile host="app.diagrams.net" modified="2024-04-24T12:44:55.241Z" agent="Mozilla/5.0 (Windows NT 10.0; Win64; x64) AppleWebKit/537.36 (KHTML, like Gecko) Chrome/123.0.0.0 Safari/537.36" version="24.2.5" etag="pSdzwJ1YwWgCFNjBNgPQ" type="github">
  <diagram name="第 1 页" id="GqZXQEV4rBfwA3C_id5s">
    <mxGraphModel>
      <root>
        <mxCell id="0" />
        <mxCell id="1" parent="0" />
      </root>
    </mxGraphModel>
  </diagram>
</mxfile>
